<?xml version="1.0" standalone="no"?>
<!DOCTYPE svg PUBLIC "-//W3C//DTD SVG 20010904//EN"
 "http://www.w3.org/TR/2001/REC-SVG-20010904/DTD/svg10.dtd">
<svg version="1.0" xmlns="http://www.w3.org/2000/svg"
 width="1580px" height="1578px" viewBox="0 0 1580.000000 1578.000000"
 preserveAspectRatio="xMidYMid meet">

<g transform="translate(0.000000,1578.000000) scale(0.100000,-0.100000)"
fill="#000000" stroke="none">
<path d="M7380 15763 c-469 -23 -750 -63 -1205 -169 -627 -147 -1192 -346
-1750 -618 -1359 -662 -2488 -1684 -3267 -2956 -645 -1054 -1043 -2264 -1139
-3470 -16 -198 -16 -901 0 -1160 33 -533 71 -835 152 -1194 429 -1904 1526
-3575 3090 -4708 998 -723 2178 -1217 3399 -1422 277 -47 472 -59 950 -60 675
-1 1389 46 1835 120 160 26 541 128 835 222 1679 539 3158 1639 4142 3082 811
1189 1273 2551 1359 4005 13 226 7 893 -10 1095 -65 754 -207 1391 -462 2073
-230 618 -479 1111 -827 1642 -487 745 -1140 1436 -1862 1972 -857 636 -1814
1088 -2880 1359 -420 107 -704 147 -1255 179 -227 13 -913 18 -1105 8z m855
-1193 c785 -50 1479 -237 2174 -585 1099 -550 2002 -1456 2540 -2550 263 -534
463 -1174 516 -1655 34 -300 36 -1126 5 -1472 -35 -386 -99 -696 -214 -1035
-69 -200 -94 -264 -217 -542 -249 -562 -476 -930 -817 -1328 -166 -194 -533
-561 -697 -697 -922 -767 -1932 -1187 -3130 -1306 -222 -22 -420 -38 -423 -35
-1 1 73 99 165 216 92 118 214 273 269 344 755 969 1153 1779 1238 2525 42
365 -11 805 -139 1140 -217 571 -647 979 -1173 1115 -623 161 -1283 -36 -1690
-505 -151 -175 -291 -418 -386 -672 -75 -201 -86 -303 -86 -785 0 -502 12
-616 91 -860 84 -259 208 -526 407 -873 235 -411 569 -916 801 -1210 73 -92
278 -337 329 -392 l25 -28 -164 6 c-638 20 -1370 195 -2009 479 -816 363
-1531 921 -2106 1640 -466 582 -814 1267 -1035 2034 -78 270 -118 502 -151
881 -20 222 -16 918 5 1150 37 396 102 740 198 1050 361 1164 1118 2202 2127
2918 698 496 1505 828 2347 966 411 67 824 90 1200 66z"/>
</g>
</svg>
